<svg xmlns="http://www.w3.org/2000/svg" viewBox="0 0 216.74 210.34"><defs><style>.cls-1{fill:#fff;}</style></defs><title>Asset 2</title><g id="Layer_2" data-name="Layer 2"><g id="Layer_6" data-name="Layer 6"><path class="cls-1" d="M70.49,85.2a4.5,4.5,0,0,0,3.18-1.32A4.66,4.66,0,0,0,75,80.7v0a4.51,4.51,0,0,0-4.5-4.5,4.51,4.51,0,0,0-3.18,1.32A4.66,4.66,0,0,0,66,80.66v0a4.51,4.51,0,0,0,4.5,4.5Z"/><path class="cls-1" d="M210.55,92.21A76.79,76.79,0,0,1,197.64,107l-6.31,5.3,12.46-62.8h0c.17-1-1.06-2.19-2.76-2-2.84.3-3.38,4.16-3.4,4.26l-7.81,39.64a36,36,0,0,1-6.31,11,23.78,23.78,0,0,1-10.66,8.24c-5.86,2.13-9.47.59-9.47-5.57a17.48,17.48,0,0,1,.15-2.61l8.26-41.3h0c.17-1-1.07-2.19-2.77-2-2.87.3-3.39,4.27-3.39,4.27h0l-8,40a37.42,37.42,0,0,0-.3,3.87,17.94,17.94,0,0,0,.21,2.74h0a14.08,14.08,0,0,1-2,4.19,15.05,15.05,0,0,1-4.14,3.9,19.87,19.87,0,0,1-3.88,1.91l-.27.09a11.15,11.15,0,0,1-7.07,0c5.41-7.38,7.56-18.51,7.56-29.17s-5.22-19.3-16.48-15.2A32.74,32.74,0,0,0,120,83.26l.07-.32,0,0a159.76,159.76,0,0,0,15.54-26.75c3.22-7.39,4.7-13.25,4.71-17.64,0-2.75-.59-5-2-6.44a4.74,4.74,0,0,0-2.66-1.39,7.24,7.24,0,0,0-3.43.33l-.35.12a11.45,11.45,0,0,0-3.09,1.73,15.75,15.75,0,0,0-3.77,4.34,25.16,25.16,0,0,0-2.57,6.06,25.55,25.55,0,0,0-.64,2.79l-13.42,65.55a51.34,51.34,0,0,0-1.05,9.84c0,.32,0,.62,0,.93l-1.23,4c-2.25,6.08-5.56,10.58-11.11,12.61-4.66,1.69-7.52,0-7.52-4.18a24.7,24.7,0,0,1,.3-3.26v-.15l.08-.4.23-.77h-.07l9.23-46L109,80a4,4,0,0,0,2.66-3.92A2.16,2.16,0,0,0,109,74L98.52,77.86l5.11-25.59c.19-1-1.06-2.21-2.77-2-2.87.3-3.39,4.27-3.39,4.27L92.36,80.1,81.09,84.2s-3.38,1.1-3,4.23c0,0,.67,2.49,3,1.78l10.07-3.66-9,45.29-1.17,3.79A32.23,32.23,0,0,1,77.19,143,17.23,17.23,0,0,1,70,148.19c-4.66,1.69-7.66.68-7.66-4.12,0-1.06.15-2.16,9-46.4.58-2.89-2.22-3.11-3.23-2.78-2.21.71-2.93,5-2.93,5-4.8,23.47-7,34.65-8,40.23l-.25,0a34,34,0,0,1-4.36,10.6c-2.25,3.23-5.1,6.52-8,7.56-8,2.9-13.37-3.1-16.52-9,14.71-19.43,30.73-53.16,25-69.5-1.11-3.17-4.56-5.09-9-3.08-11.82,5.35-17,38.71-19.13,49.69l-3.86,21.32a16.93,16.93,0,0,1-3.54,3.17,23.58,23.58,0,0,1-13.62,3.84h-1c-3.84,0-3.87,5.9-.09,6H3.89a30.25,30.25,0,0,0,15.51-3.94l-4.55,25.1c-.15.66-1.82,9.68-1.76,14.49.1,7.8,4.29,13.93,12.47,12.59,9.15-1.5,11.57-14,11.57-22.09,0-4.65-2.14-12.53-4-22.45a23.81,23.81,0,0,0,4.42,1.1,15.3,15.3,0,0,0,6.16-.89c5.46-2,10.57-6.93,14.06-12.67,2.18,3.41,6.65,4.23,12.23,2.2a24,24,0,0,0,8.26-5,31.46,31.46,0,0,0,4.91-6.2c2.3,3.29,6.82,3.88,11.92,2,7-2.55,11.59-7.45,14.67-13.71,2.53,4,7.07,5.64,13.57,3.28a30.12,30.12,0,0,0,12.53-8.92c2.36,1.5,6.6,1.79,10.56.61v0l.61-.21.33-.1.15-.06h0a27.09,27.09,0,0,0,7.8-4.4,24.49,24.49,0,0,0,4.58-4.87c.18-.26.35-.54.52-.82,2.82,2.51,7.32,2.59,12.42.73,5.41-2,9.91-5.86,14-10.34l-2.25,11.34c-10.67,7.64-15.33,11.43-18.48,14.53a21.87,21.87,0,0,0-5.93,14.93c0,6,5.1,7.91,10.36,6,5.86-2.14,10.44-7.71,13.6-13.07a33.15,33.15,0,0,0,3.45-8.31L189.82,120a151.68,151.68,0,0,0,16.23-14.17,73.37,73.37,0,0,0,9-11.39ZM128.06,43.63a19.48,19.48,0,0,1,1.05-3.09,9.82,9.82,0,0,1,1.39-2.3,3.58,3.58,0,0,1,.67-.64,2.55,2.55,0,0,1,.75-.41l.1,0a1.73,1.73,0,0,1,.85-.1,1.31,1.31,0,0,1,.93.77,6.19,6.19,0,0,1,.55,2.92c0,3-1.11,8-4,14.63a123.36,123.36,0,0,1-7.55,14.3ZM30.77,125.5c2.08-7.21,6.93-36,12.36-40.63,1.89-1.59,3.88-1.4,4.31,0,3.52,11.17-8.09,37-19.52,56.73Zm.35,63.6c-.18,3.26-.88,12.09-6.44,12.74-4,.46-5.58-2.66-5.58-7.62,0-2.85.86-10.25,5.66-35.28,1,2.17,1.74,4.21,3.16,10C29.19,174.23,31.53,181.31,31.12,189.1ZM136,112.75c-.13-1.24-1.37-1.84-3-1.8-3.17.06-3,4-3,4a14.71,14.71,0,0,0,2.1,7.5c-.15,0-.15,0-.15.2-2.4,2.23-4,4.3-8.62,6-7.82,2.84-9.92-2.55-9.92-9.31a50.17,50.17,0,0,1,.9-8.44l3.61-18c4-4.93,8.41-9.37,13.37-11.18,8.11-2.95,10.48,4.77,10.48,11.38,0,5.56-1.26,17.57-5.16,22.89A7.26,7.26,0,0,1,136,112.75Zm45.72,19.71a18.32,18.32,0,0,1-2.25,5.47c-2.55,4.09-5.33,7.8-8.94,9.12-2.4.87-4.36.08-4.36-2.17,0-4.21,2.33-8.21,5.49-11A107.6,107.6,0,0,1,183.21,125Z"/></g><g id="Layer_7" data-name="Layer 7"><path class="cls-1" d="M111.57,6a99.17,99.17,0,1,1-99.16,99.17A99.29,99.29,0,0,1,111.57,6m0-6A105.17,105.17,0,1,0,216.74,105.17,105.17,105.17,0,0,0,111.57,0Z"/></g></g></svg>